<?xml version="1.0" encoding="utf-8"?>
<!-- Generator: Adobe Illustrator 26.3.1, SVG Export Plug-In . SVG Version: 6.00 Build 0)  -->
<svg version="1.1" id="Layer_1" xmlns="http://www.w3.org/2000/svg" xmlns:xlink="http://www.w3.org/1999/xlink" x="0px" y="0px"
	 viewBox="0 0 500 500" style="enable-background:new 0 0 500 500;" xml:space="preserve">
<style type="text/css">
	.st0{fill:#FFFFFF;}
</style>
<g>
	<g>
		<path class="st0" d="M45.95,342.6l10.19-14.41c0.71-1,0.98-2.16,0.77-3.36l0,0c-0.21-1.2-0.83-2.21-1.84-2.93
			c-1.01-0.7-2.17-0.97-3.37-0.77c-1.21,0.21-2.22,0.85-2.93,1.86l-8.35,11.8l-8.34-11.79c-0.71-1.02-1.73-1.66-2.94-1.87
			c-1.2-0.2-2.36,0.06-3.39,0.78c-0.99,0.71-1.62,1.72-1.82,2.92c-0.2,1.21,0.06,2.37,0.77,3.36l10.2,14.41l-10.2,14.41
			c-0.71,0.99-0.97,2.15-0.77,3.36c0.2,1.21,0.84,2.22,1.82,2.9c0.52,0.39,1.1,0.65,1.73,0.77c1.89,0.38,3.5-0.29,4.6-1.84
			l8.35-11.8l8.35,11.8c0.9,1.27,2.14,1.94,3.6,1.94c0.32,0,0.66-0.04,1-0.1c0.63-0.13,1.2-0.38,1.69-0.75
			c1.01-0.71,1.66-1.72,1.86-2.93c0.2-1.2-0.06-2.37-0.77-3.35L45.95,342.6z"/>
		<path class="st0" d="M97.89,316.58c5.15,0,9.58,1.87,13.19,5.56c0.89,0.92,1.99,1.38,3.27,1.38c1.27,0,2.38-0.44,3.28-1.32
			c0.91-0.88,1.39-1.98,1.42-3.27c0-1.27-0.45-2.38-1.33-3.29c-5.42-5.52-12.09-8.33-19.83-8.33c-7.61,0-14.19,2.74-19.56,8.14
			c-5.4,5.37-8.14,11.95-8.14,19.56c0,7.61,2.74,14.21,8.14,19.6c5.37,5.4,11.95,8.14,19.56,8.14c7.74,0,14.39-2.8,19.79-8.32
			c0.92-0.91,1.37-2.03,1.33-3.29c0-1.28-0.46-2.38-1.37-3.26c-0.89-0.89-1.96-1.34-3.19-1.34c-1.34,0.01-2.51,0.49-3.37,1.38
			c-3.6,3.67-8.04,5.53-13.19,5.53c-5.06,0-9.44-1.82-13.01-5.39c-3.6-3.61-5.43-8-5.43-13.05c0-5.05,1.83-9.43,5.43-13.02
			C88.46,318.41,92.83,316.58,97.89,316.58z"/>
		<path class="st0" d="M143.37,322.02c-5.59,0-10.44,2-14.41,5.94c-3.97,3.96-5.98,8.81-5.98,14.41c0,5.6,2.01,10.45,5.98,14.41
			c3.97,3.97,8.81,5.98,14.41,5.98c5.57,0,10.41-2.01,14.37-5.98c3.97-3.97,5.98-8.82,5.98-14.41c0-5.59-2.01-10.44-5.98-14.41
			C153.78,324.02,148.94,322.02,143.37,322.02z M154.46,342.37c0,3.04-1.1,5.69-3.27,7.86c-2.15,2.15-4.78,3.24-7.82,3.24
			c-3.07,0-5.71-1.09-7.86-3.24c-2.17-2.17-3.27-4.81-3.27-7.86c0-3.04,1.1-5.67,3.28-7.82c2.15-2.17,4.79-3.27,7.85-3.27
			c3.04,0,5.67,1.1,7.83,3.28C153.37,336.71,154.46,339.34,154.46,342.37z"/>
		<path class="st0" d="M212.09,322.02c-5.26,0-9.67,2.23-13.13,6.64c-3.45-4.41-7.87-6.64-13.13-6.64c-3.21,0-6.19,0.92-8.89,2.74
			c-0.26-0.57-0.63-1.09-1.11-1.54c-0.86-0.8-1.91-1.2-3.12-1.2c-1.28,0-2.37,0.45-3.26,1.33c-0.91,0.91-1.37,2.02-1.37,3.3v31.44
			c0,1.28,0.46,2.38,1.36,3.28c0.89,0.92,1.99,1.38,3.27,1.38c1.28,0,2.39-0.46,3.3-1.38c0.88-0.91,1.33-2.02,1.33-3.28v-15.72
			c0-3.08,0.87-5.76,2.58-7.94c1.68-2.12,3.62-3.16,5.92-3.16c2.32,0,4.26,1.04,5.92,3.19c1.71,2.16,2.58,4.82,2.58,7.9v15.72
			c0,1.27,0.45,2.38,1.33,3.29c0.91,0.91,2.02,1.37,3.29,1.37c1.28,0,2.39-0.46,3.3-1.38c0.88-0.91,1.32-2.01,1.32-3.28v-15.72
			c0-3.08,0.87-5.74,2.58-7.91c1.66-2.14,3.59-3.18,5.91-3.18c2.3,0,4.24,1.04,5.92,3.19c1.71,2.16,2.58,4.82,2.58,7.9v15.72
			c0,1.27,0.45,2.38,1.33,3.29c0.91,0.91,2.02,1.37,3.29,1.37c1.28,0,2.38-0.46,3.26-1.37c0.91-0.91,1.37-2.02,1.37-3.29v-15.72
			c0-5.57-1.74-10.4-5.17-14.36C221.21,324.04,216.98,322.02,212.09,322.02z"/>
		<path class="st0" d="M279.66,322.02c-5.26,0-9.67,2.23-13.13,6.64c-3.45-4.41-7.87-6.64-13.13-6.64c-3.2,0-6.19,0.92-8.89,2.74
			c-0.26-0.57-0.63-1.09-1.11-1.54c-0.86-0.8-1.91-1.2-3.12-1.2c-1.28,0-2.37,0.45-3.26,1.33c-0.91,0.91-1.37,2.02-1.37,3.3v31.44
			c0,1.28,0.46,2.38,1.36,3.28c0.89,0.92,1.99,1.38,3.27,1.38c1.28,0,2.39-0.46,3.3-1.38c0.88-0.91,1.32-2.02,1.32-3.28v-15.72
			c0-3.08,0.87-5.76,2.58-7.94c1.68-2.12,3.62-3.16,5.92-3.16c2.32,0,4.26,1.04,5.92,3.19c1.71,2.16,2.58,4.82,2.58,7.9v15.72
			c0,1.27,0.45,2.38,1.33,3.29c0.91,0.91,2.02,1.37,3.29,1.37c1.28,0,2.39-0.46,3.3-1.38c0.88-0.91,1.32-2.01,1.32-3.28v-15.72
			c0-3.08,0.87-5.74,2.58-7.91c1.66-2.14,3.59-3.18,5.91-3.18c2.3,0,4.24,1.04,5.92,3.19c1.71,2.16,2.58,4.82,2.58,7.9v15.72
			c0,1.27,0.45,2.38,1.33,3.29c0.91,0.91,2.02,1.37,3.29,1.37c1.28,0,2.38-0.46,3.26-1.37c0.91-0.91,1.37-2.02,1.37-3.29v-15.72
			c0-5.57-1.74-10.4-5.17-14.36C288.79,324.04,284.56,322.02,279.66,322.02z"/>
		<path class="st0" d="M336.75,322.02c-1.27,0-2.37,0.45-3.29,1.33c-0.91,0.91-1.37,2.02-1.37,3.3v15.72c0,3.07-0.98,5.72-2.91,7.89
			c-1.9,2.12-4.21,3.2-6.87,3.2c-2.66,0-4.98-1.08-6.91-3.2c-1.93-2.17-2.91-4.83-2.91-7.9v-15.72c0-1.27-0.45-2.38-1.35-3.31
			c-0.91-0.88-2.01-1.32-3.28-1.32c-1.28,0-2.37,0.45-3.26,1.33c-0.91,0.91-1.37,2.02-1.37,3.3v15.72c0,5.58,1.87,10.42,5.55,14.39
			c3.72,3.98,8.27,6,13.52,6c3.64,0,7.01-1.04,10.04-3.09c0.23,0.63,0.6,1.21,1.11,1.72c0.91,0.91,2.02,1.37,3.29,1.37
			c1.28,0,2.38-0.46,3.26-1.37c0.91-0.91,1.37-2.02,1.37-3.29v-31.44c0-1.28-0.46-2.39-1.37-3.3
			C339.12,322.47,338.02,322.02,336.75,322.02z"/>
		<path class="st0" d="M366.27,322.02c-3.65,0-7.04,1.03-10.07,3.05c-0.22-0.63-0.58-1.21-1.09-1.73c-0.91-0.88-2.01-1.32-3.28-1.32
			c-1.28,0-2.37,0.45-3.26,1.33c-0.91,0.91-1.37,2.02-1.37,3.3v31.44c0,1.28,0.46,2.38,1.36,3.28c0.89,0.92,1.99,1.38,3.27,1.38
			c1.28,0,2.39-0.46,3.3-1.38c0.88-0.91,1.32-2.02,1.32-3.28v-15.72c0-3.06,0.99-5.72,2.94-7.89c1.9-2.12,4.21-3.2,6.87-3.2
			c2.66,0,4.97,1.09,6.87,3.24c1.93,2.16,2.91,4.8,2.91,7.86v15.72c0,1.28,0.46,2.39,1.37,3.29s2.02,1.37,3.29,1.37
			c1.28,0,2.38-0.46,3.26-1.37c0.91-0.91,1.37-2.02,1.37-3.29v-15.72c0-5.58-1.88-10.42-5.59-14.39
			C376.04,324.03,371.51,322.02,366.27,322.02z"/>
		<path class="st0" d="M397.1,307.33h-0.55c-1.27,0-2.38,0.45-3.29,1.33c-0.91,0.91-1.37,2.02-1.37,3.29c0,1.28,0.46,2.38,1.37,3.26
			c0.91,0.91,2.02,1.37,3.29,1.37h0.55c1.28,0,2.38-0.46,3.28-1.36c0.92-0.89,1.38-1.99,1.38-3.27c0-1.28-0.46-2.38-1.38-3.31
			C399.47,307.77,398.37,307.33,397.1,307.33z"/>
		<path class="st0" d="M396.88,322.02c-1.27,0-2.37,0.45-3.26,1.33c-0.91,0.91-1.37,2.02-1.37,3.3v31.44c0,1.28,0.46,2.38,1.36,3.28
			c0.89,0.92,1.99,1.38,3.27,1.38c1.28,0,2.39-0.46,3.31-1.38c0.88-0.91,1.32-2.01,1.32-3.28v-31.44c0-1.27-0.45-2.38-1.35-3.31
			C399.25,322.47,398.15,322.02,396.88,322.02z"/>
		<path class="st0" d="M429.79,331.28c1.25,0,2.35-0.46,3.25-1.36c0.92-0.89,1.38-1.99,1.38-3.27c0-1.28-0.46-2.39-1.38-3.31
			c-0.91-0.88-2-1.32-3.25-1.32h-11.13v-11.13c0-1.25-0.45-2.34-1.33-3.26c-0.91-0.91-2.02-1.37-3.3-1.37
			c-1.28,0-2.38,0.46-3.26,1.37c-0.91,0.91-1.37,2.01-1.37,3.26v31.48c0,5.6,2.01,10.45,5.98,14.41c3.97,3.97,8.81,5.98,14.41,5.98
			c1.25,0,2.35-0.46,3.26-1.37c0.91-0.91,1.37-2.02,1.37-3.29c0-1.25-0.46-2.35-1.37-3.26c-0.91-0.91-2.01-1.37-3.26-1.37
			c-3.07,0-5.71-1.09-7.86-3.24c-2.17-2.17-3.27-4.81-3.27-7.86v-11.09H429.79z"/>
		<path class="st0" d="M473.72,323.32c-0.88-0.89-1.98-1.33-3.26-1.33c-1.27,0-2.38,0.45-3.29,1.33c-0.91,0.91-1.37,2.02-1.37,3.29
			v15.72c0,3.06-0.98,5.72-2.91,7.89c-1.93,2.15-4.18,3.2-6.87,3.2c-2.66,0-4.98-1.08-6.9-3.2c-1.93-2.17-2.91-4.83-2.91-7.9v-15.72
			c0-1.27-0.45-2.38-1.35-3.3c-0.91-0.88-2.01-1.32-3.28-1.32c-1.28,0-2.37,0.45-3.26,1.33c-0.91,0.91-1.37,2.02-1.37,3.29v15.72
			c0,5.58,1.87,10.42,5.56,14.39c3.73,3.98,8.27,6,13.52,6c3.48,0,6.73-0.95,9.66-2.84c-0.31,2.31-1.25,4.35-2.79,6.07
			c-1.9,2.14-4.22,3.23-6.87,3.23c-3.39,0-6-1.53-7.98-4.68c-0.67-1.06-1.64-1.76-2.9-2.06c-1.25-0.28-2.42-0.06-3.47,0.63
			c-1.1,0.67-1.8,1.65-2.07,2.9c-0.27,1.24-0.07,2.41,0.6,3.48c1.76,2.8,4.06,5.02,6.84,6.61c2.79,1.58,5.81,2.39,8.98,2.39
			c5.24,0,9.78-2.02,13.48-6c3.71-3.96,5.59-8.8,5.59-14.39v-31.45C475.09,325.34,474.63,324.23,473.72,323.32z"/>
	</g>
	<g>
		<path class="st0" d="M304.46,198.86v56.2l-12.34-8.81c-2.49-1.95-4.92-3.45-7.43-4.58c-4.75-2.14-9.8-3.22-15.01-3.22h-69.47
			c-2.55,0-4.62-2.07-4.62-4.62v-65.41c0-3.28-2.66-5.94-5.94-5.94h0c-3.28,0-5.94,2.66-5.94,5.94v65.41
			c0,9.11,7.38,16.49,16.49,16.49h69.47c3.52,0,6.93,0.73,10.14,2.18c1.65,0.74,3.3,1.78,5.06,3.17c0.08,0.06,0.15,0.12,0.23,0.17
			l15.13,10.8c0.04,0.03,0.09,0.06,0.13,0.09c1.72,1.16,3.72,1.75,5.72,1.75c1.85,0,3.7-0.5,5.36-1.52
			c3.11-1.91,4.89-5.42,4.89-9.07l0-59.02c0-3.28-2.66-5.94-5.94-5.94l0,0C307.12,192.93,304.46,195.58,304.46,198.86z"/>
		<path class="st0" d="M209.66,157.88h-3.56c-2.75,0-5-2.25-5-5v-18.89c0-2.75,2.25-5,5-5h3.56c2.75,0,5,2.25,5,5v18.89
			C214.66,155.63,212.41,157.88,209.66,157.88z"/>
		<g>
			<circle class="st0" cx="225.69" cy="192.93" r="8.9"/>
			<circle class="st0" cx="251" cy="192.93" r="8.9"/>
			<circle class="st0" cx="276.31" cy="192.93" r="8.9"/>
		</g>
		<path class="st0" d="M175.28,184.11c-1.8,0-3.58-0.82-4.73-2.38c-1.93-2.61-1.39-6.3,1.23-8.23l68.97-51.08
			c6.26-4.55,14.61-4.55,20.83-0.03c0.05,0.04,0.11,0.08,0.16,0.12l65.58,51.08c2.56,2,3.02,5.7,1.03,8.26
			c-2,2.56-5.7,3.02-8.26,1.03l-65.49-51.01c-2.07-1.46-4.83-1.45-6.88,0.05l-68.92,51.05
			C177.72,183.73,176.49,184.11,175.28,184.11z"/>
	</g>
</g>
</svg>
